<svg version="1.1" viewBox="0.0 0.0 751.8871391076116 123.38845144356955" fill="none" stroke="none" stroke-linecap="square" stroke-miterlimit="10" xmlns:xlink="http://www.w3.org/1999/xlink" xmlns="http://www.w3.org/2000/svg"><clipPath id="p.0"><path d="m0 0l751.88715 0l0 123.38845l-751.88715 0l0 -123.38845z" clip-rule="nonzero"/></clipPath><g clip-path="url(#p.0)"><path fill="#000000" fill-opacity="0.0" d="m0 0l751.88715 0l0 123.38845l-751.88715 0z" fill-rule="evenodd"/><path fill="#000000" fill-opacity="0.0" d="m7.577428 8.839895l731.37006 0l0 77.5748l-731.37006 0z" fill-rule="evenodd"/><path fill="#a19191" d="m137.6687 58.29489l-1.875 -2.0625l-1.875 2.0625l1.875 2.0625l1.875 -2.0625zm20.0625 5.4375q0.75 0 0.75 -0.75q0 -0.1875 -0.1875 -0.5625q-3.1875 -3.75 -10.875 -3.9375q-7.5 0 -10.875 3.9375q-0.1875 0.375 -0.1875 0.5625q0 0.75 0.75 0.75q0.375 0.1875 0.75 -0.375q1.5 -1.125 3.0 -1.5q2.25 -0.75 6.5625 -0.75q3.75 0 6.0 0.5625q1.875 0.375 3.5625 1.6875q0.375 0.375 0.75 0.375zm-7.125 -9.5625l-3.1875 -3.375l-3.1875 3.375l3.1875 3.5625l3.1875 -3.5625zm-20.625 -16.6875q0 1.125 0.9375 1.125q1.125 0 1.125 -1.125q0 -1.125 -1.3125 -0.9375q-0.75 0.1875 -0.75 0.9375zm29.4375 17.25q0.75 -0.1875 0.75 -0.9375q0 -0.375 -0.1875 -0.5625q-4.875 -6.375 -12.5625 -6.375q-7.6875 0 -12.375 6.1875q-0.375 0.5625 -0.375 0.75q0 0.9375 0.75 0.9375q0.5625 0 0.9375 -0.375q2.8125 -2.4375 4.6875 -3.5625q2.8125 -1.3125 6.375 -1.3125q3.75 0 6.375 1.3125q2.25 1.125 4.6875 3.5625q0.375 0.375 0.9375 0.375zm1.5 3.5625l-1.875 -2.0625l-1.875 2.0625l1.875 2.0625l1.875 -2.0625zm-24.375 -27.749998q0.1875 1.125 1.125 0.9375q1.125 0.1875 0.9375 -0.9375q0 -1.125 -0.9375 -1.125q-0.9375 0 -1.125 1.125zm10.875 -3.1875q0 0.5625 0.75 0.75q1.3125 0.1875 1.3125 -0.9375q0 -0.9375 -1.125 -1.125q-1.125 0 -0.9375 1.3125zm15.375 10.124998q0.1875 1.125 1.125 1.125q1.3125 0 0.9375 -1.3125q0 -0.75 -0.75 -0.75q-1.3125 -0.1875 -1.3125 0.9375zm-6.75 -6.937498q0 0.75 0.75 0.75q1.3125 0.1875 1.3125 -0.9375q0 -1.125 -1.125 -1.125q-1.125 0 -0.9375 1.3125zm8.0625 5.249998q1.3125 0 2.0625 0.9375q0.9375 0.9375 0.9375 2.0625q0 1.3125 -0.9375 2.25q-0.75 0.9375 -2.0625 0.75q-0.5625 0 -0.9375 -0.1875q-2.25 4.125 -2.25 8.0625l0 0.1875q0.1875 0.9375 0.5625 1.3125q0.75 0.75 0.5625 1.6875q0 0.5625 -0.75 1.125q-0.375 0.375 -0.375 0.9375q0 0.5625 0.75 1.875q0.5625 0.9375 0.375 1.6875q-0.1875 0.75 -2.0625 3.1875q-0.375 2.625 -2.625 3.5625q-3.0 1.3125 -11.25 0.9375q-6.1875 -0.1875 -8.4375 -0.9375q-2.625 -0.9375 -3.0 -3.5625q-2.0625 -2.4375 -2.0625 -3.375q0 -0.75 0.75 -1.875q0.5625 -0.9375 0.5625 -1.5q0.1875 -0.5625 -0.375 -0.9375q-0.5625 -0.5625 -0.75 -1.3125q0.1875 -0.9375 0.5625 -1.5q0.375 -0.375 0.375 -1.3125l0 -0.1875q0 -4.125 -2.25 -8.0625q-0.1875 0.1875 -0.75 0.1875q-0.9375 0.1875 -2.0625 -0.75q-0.9374924 -0.9375 -0.9374924 -2.4375q0 -0.9375 0.9374924 -1.875q1.125 -0.9375 2.0625 -0.9375q1.3125 0 2.0625 0.9375q0.75 0.75 0.75 1.875q0 1.3125 -0.375 1.875q3.1875 4.6875 4.6875 4.6875q1.125 0 0.9375 -2.25q0 -3.1875 -1.875 -8.25q-1.125 0 -2.0625 -0.75q-0.75 -0.75 -0.75 -2.062498q0 -1.125 0.75 -2.25q0.9375 -0.75 2.0625 -0.75q1.3125 0 2.25 0.75q0.75 0.9375 0.75 2.25q0.1875 1.3124981 -0.75 2.062498q1.125 3.75 2.4375 6.0q1.3125 2.4375 1.875 2.4375q0.9375 0.1875 1.5 -2.25q0.75 -2.8125 0.75 -8.624998q-1.5 -0.75 -1.5 -2.625q0 -1.5 0.9375 -2.4375q0.9375 -0.9375 2.4375 -0.9375q1.125 0 2.0625 0.9375q0.9375 0.9375 0.9375 2.25q0 1.875 -1.5 2.8125q0 5.812498 0.75 8.624998q0.5625 2.625 1.3125 2.4375q0.75 0.1875 2.0625 -2.625q1.3125 -2.4375 2.4375 -6.0q-0.9375 -0.75 -0.9375 -2.062498q0 -1.125 0.9375 -2.25q0.9375 -0.75 2.0625 -0.75q1.3125 0 2.25 0.75q0.9375 0.9375 0.75 2.25q0 1.1249981 -0.75 1.8749981q-0.75 0.9375 -2.0625 0.9375q-1.6875 5.0625 -1.875 8.25q0 2.25 0.9375 2.25q1.875 0 4.6875 -4.6875q-0.5625 -0.75 -0.5625 -1.6875q0 -1.125 0.9375 -2.0625q0.75 -0.9375 2.0625 -0.9375z" fill-rule="nonzero"/><path fill="#a19191" d="m175.90308 63.91989l0 -34.359375l4.546875 0l0 34.359375l-4.546875 0zm25.890625 0l0 -34.359375l11.84375 0q4.0 0 6.109375 0.484375q2.953125 0.6875 5.046875 2.468748q2.71875 2.296875 4.0625 5.875q1.34375 3.5625 1.34375 8.15625q0 3.921875 -0.921875 6.953125q-0.90625 3.015625 -2.34375 5.0q-1.421875 1.96875 -3.125 3.109375q-1.6875 1.140625 -4.09375 1.734375q-2.40625 0.578125 -5.515625 0.578125l-12.40625 0zm4.546875 -4.0625l7.34375 0q3.390625 0 5.328125 -0.625q1.9375 -0.640625 3.078125 -1.78125q1.625 -1.625 2.515625 -4.34375q0.90625 -2.734375 0.90625 -6.625q0 -5.390625 -1.765625 -8.28125q-1.765625 -2.90625 -4.296875 -3.890625q-1.828125 -0.703125 -5.890625 -0.703125l-7.21875 0l0 26.25zm43.546875 4.0625l0 -34.359375l24.84375 0l0 4.046873l-20.296875 0l0 10.53125l19.015625 0l0 4.03125l-19.015625 0l0 11.6875l21.09375 0l0 4.0625l-25.640625 0zm38.828125 0l13.203125 -34.359375l4.90625 0l14.0625 34.359375l-5.1875 0l-4.0 -10.40625l-14.375 0l-3.765625 10.40625l-4.84375 0zm9.921875 -14.109375l11.65625 0l-3.59375 -9.515625q-1.640625 -4.34375 -2.4375 -7.125q-0.65625 3.296875 -1.84375 6.5625l-3.78125 10.078125zm36.375 14.109375l0 -34.359375l4.546875 0l0 30.296873l16.921875 0l0 4.0625l-21.46875 0zm65.109375 0l0 -34.359375l11.84375 0q4.0 0 6.109375 0.484375q2.953125 0.6875 5.046875 2.468748q2.71875 2.296875 4.0625 5.875q1.34375 3.5625 1.34375 8.15625q0 3.921875 -0.921875 6.953125q-0.90625 3.015625 -2.34375 5.0q-1.421875 1.96875 -3.125 3.109375q-1.6875 1.140625 -4.09375 1.734375q-2.40625 0.578125 -5.515625 0.578125l-12.40625 0zm4.546875 -4.0625l7.34375 0q3.390625 0 5.328125 -0.625q1.9375 -0.640625 3.078125 -1.78125q1.625 -1.625 2.515625 -4.34375q0.90625 -2.734375 0.90625 -6.625q0 -5.390625 -1.765625 -8.28125q-1.765625 -2.90625 -4.296875 -3.890625q-1.828125 -0.703125 -5.890625 -0.703125l-7.21875 0l0 26.25zm43.546875 4.0625l0 -34.359375l24.84375 0l0 4.046873l-20.296875 0l0 10.53125l19.015625 0l0 4.03125l-19.015625 0l0 11.6875l21.09375 0l0 4.0625l-25.640625 0zm69.77344 -12.046875l4.546936 1.140625q-1.421875 5.609375 -5.140686 8.5625q-3.71875 2.9375 -9.078125 2.9375q-5.5625 0 -9.046875 -2.265625q-3.46875 -2.265625 -5.296875 -6.546875q-1.8125 -4.296875 -1.8125 -9.21875q0 -5.375 2.046875 -9.359375q2.0625 -4.0 5.84375 -6.078123q3.78125 -2.078125 8.328125 -2.078125q5.15625 0 8.671875 2.625q3.515686 2.624998 4.906311 7.390623l-4.484436 1.046875q-1.1875 -3.75 -3.46875 -5.453125q-2.265625 -1.71875 -5.71875 -1.71875q-3.953125 0 -6.625 1.90625q-2.65625 1.890625 -3.734375 5.09375q-1.078125 3.203125 -1.078125 6.59375q0 4.390625 1.28125 7.65625q1.28125 3.265625 3.96875 4.890625q2.703125 1.609375 5.84375 1.609375q3.8125 0 6.453125 -2.203125q2.65625 -2.203125 3.59375 -6.53125zm22.109436 -4.6875q0 -8.5625 4.59375 -13.390625q4.59375 -4.843748 11.859375 -4.843748q4.75 0 8.5625 2.28125q3.828125 2.265623 5.828125 6.328123q2.015625 4.0625 2.015625 9.21875q0 5.234375 -2.109375 9.359375q-2.109375 4.125 -5.984375 6.25q-3.859375 2.125 -8.34375 2.125q-4.84375 0 -8.671875 -2.34375q-3.8125 -2.359375 -5.78125 -6.40625q-1.96875 -4.0625 -1.96875 -8.578125zm4.6875 0.0625q0 6.21875 3.328125 9.796875q3.34375 3.5625 8.390625 3.5625q5.125 0 8.4375 -3.609375q3.328125 -3.609375 3.328125 -10.234375q0 -4.203125 -1.421875 -7.328125q-1.421875 -3.125 -4.15625 -4.84375q-2.71875 -1.734375 -6.125 -1.734375q-4.828125 0 -8.3125 3.328125q-3.46875 3.3125 -3.46875 11.0625zm47.4375 16.671875l0 -34.359375l15.234375 0q4.59375 0 6.984375 0.921875q2.390625 0.921875 3.8125 3.265623q1.4375 2.34375 1.4375 5.1875q0 3.65625 -2.375 6.171875q-2.359375 2.5 -7.3125 3.171875q1.8125 0.875 2.75 1.71875q1.984375 1.828125 3.765625 4.5625l5.984375 9.359375l-5.71875 0l-4.546875 -7.15625q-2.0 -3.09375 -3.296875 -4.734375q-1.28125 -1.640625 -2.296875 -2.296875q-1.015625 -0.65625 -2.078125 -0.90625q-0.765625 -0.171875 -2.53125 -0.171875l-5.265625 0l0 15.265625l-4.546875 0zm4.546875 -19.203125l9.765625 0q3.125 0 4.875 -0.640625q1.765625 -0.640625 2.671875 -2.0625q0.921875 -1.421875 0.921875 -3.078125q0 -2.4375 -1.78125 -4.0q-1.765625 -1.578125 -5.578125 -1.578125l-10.875 0l0 11.359375z" fill-rule="nonzero"/><path fill="#000000" fill-opacity="0.0" d="m60.62992 72.8399l678.3307 0l0 51.71653l-678.3307 0z" fill-rule="evenodd"/><path fill="#a19191" d="m72.114296 107.439896l0 -19.078125l2.53125 0l0 19.078125l-2.53125 0zm14.358795 0l0 -19.078125l2.59375 0l10.015625 14.984375l0 -14.984375l2.421875 0l0 19.078125l-2.59375 0l-10.015625 -15.0l0 15.0l-2.421875 0zm31.049484 0l0 -16.828125l-6.28125 0l0 -2.25l15.125 0l0 2.25l-6.3125 0l0 16.828125l-2.53125 0zm18.410027 0l0 -19.078125l13.796875 0l0 2.25l-11.265625 0l0 5.84375l10.546875 0l0 2.234375l-10.546875 0l0 6.5l11.703125 0l0 2.25l-14.234375 0zm25.169846 0l0 -19.078125l8.46875 0q2.546875 0 3.875 0.515625q1.328125 0.515625 2.109375 1.8125q0.796875 1.296875 0.796875 2.875q0 2.03125 -1.3125 3.421875q-1.3125 1.390625 -4.0625 1.765625q1.015625 0.484375 1.53125 0.953125q1.109375 1.015625 2.09375 2.546875l3.3125 5.1875l-3.171875 0l-2.515625 -3.96875q-1.109375 -1.71875 -1.828125 -2.625q-0.71875 -0.921875 -1.28125 -1.28125q-0.5625 -0.359375 -1.15625 -0.5q-0.421875 -0.09375 -1.40625 -0.09375l-2.921875 0l0 8.46875l-2.53125 0zm2.53125 -10.65625l5.421875 0q1.734375 0 2.703125 -0.359375q0.984375 -0.359375 1.484375 -1.140625q0.515625 -0.796875 0.515625 -1.71875q0 -1.359375 -0.984375 -2.21875q-0.984375 -0.875 -3.109375 -0.875l-6.03125 0l0 6.3125zm24.515625 10.65625l0 -19.078125l2.53125 0l0 19.078125l-2.53125 0zm13.608795 -9.296875q0 -4.75 2.546875 -7.4375q2.5625 -2.6875 6.59375 -2.6875q2.640625 0 4.765625 1.265625q2.125 1.265625 3.234375 3.53125q1.109375 2.25 1.109375 5.109375q0 2.90625 -1.171875 5.203125q-1.171875 2.28125 -3.3125 3.46875q-2.140625 1.171875 -4.640625 1.171875q-2.6875 0 -4.8125 -1.296875q-2.125 -1.3125 -3.21875 -3.5625q-1.09375 -2.25 -1.09375 -4.765625zm2.609375 0.046875q0 3.4375 1.84375 5.4375q1.859375 1.984375 4.671875 1.984375q2.84375 0 4.6875 -2.0q1.84375 -2.015625 1.84375 -5.703125q0 -2.328125 -0.796875 -4.0625q-0.78125 -1.734375 -2.296875 -2.6875q-1.515625 -0.96875 -3.40625 -0.96875q-2.6875 0 -4.625 1.84375q-1.921875 1.84375 -1.921875 6.15625zm26.34317 9.25l0 -19.078125l8.46875 0q2.546875 0 3.875 0.515625q1.328125 0.515625 2.109375 1.8125q0.796875 1.296875 0.796875 2.875q0 2.03125 -1.3125 3.421875q-1.3125 1.390625 -4.0625 1.765625q1.015625 0.484375 1.53125 0.953125q1.109375 1.015625 2.09375 2.546875l3.3125 5.1875l-3.171875 0l-2.515625 -3.96875q-1.109375 -1.71875 -1.828125 -2.625q-0.71875 -0.921875 -1.28125 -1.28125q-0.5625 -0.359375 -1.15625 -0.5q-0.421875 -0.09375 -1.40625 -0.09375l-2.921875 0l0 8.46875l-2.53125 0zm2.53125 -10.65625l5.421875 0q1.734375 0 2.703125 -0.359375q0.984375 -0.359375 1.484375 -1.140625q0.515625 -0.796875 0.515625 -1.71875q0 -1.359375 -0.984375 -2.21875q-0.984375 -0.875 -3.109375 -0.875l-6.03125 0l0 6.3125zm31.499695 10.65625l0 -19.078125l6.5625 0q2.234375 0 3.40625 0.265625q1.640625 0.375 2.796875 1.375q1.5 1.265625 2.25 3.25q0.75 1.984375 0.75 4.546875q0 2.171875 -0.515625 3.859375q-0.5 1.671875 -1.296875 2.78125q-0.78125 1.09375 -1.734375 1.71875q-0.9375 0.625 -2.28125 0.953125q-1.328125 0.328125 -3.0625 0.328125l-6.875 0zm2.515625 -2.25l4.078125 0q1.890625 0 2.953125 -0.34375q1.078125 -0.359375 1.71875 -1.0q0.890625 -0.890625 1.390625 -2.40625q0.515625 -1.515625 0.515625 -3.6875q0 -2.984375 -0.984375 -4.59375q-0.984375 -1.609375 -2.390625 -2.15625q-1.015625 -0.390625 -3.265625 -0.390625l-4.015625 0l0 14.578125zm24.1875 2.25l0 -19.078125l13.796875 0l0 2.25l-11.265625 0l0 5.84375l10.546875 0l0 2.234375l-10.546875 0l0 6.5l11.703125 0l0 2.25l-14.234375 0zm24.279236 -6.125l2.375 -0.21875q0.171875 1.4375 0.78125 2.359375q0.625 0.90625 1.921875 1.484375q1.3125 0.5625 2.9375 0.5625q1.4375 0 2.546875 -0.421875q1.109375 -0.4375 1.640625 -1.1875q0.546875 -0.75 0.546875 -1.640625q0 -0.890625 -0.53125 -1.5625q-0.515625 -0.671875 -1.703125 -1.125q-0.765625 -0.296875 -3.40625 -0.921875q-2.625 -0.640625 -3.671875 -1.203125q-1.375 -0.71875 -2.046875 -1.765625q-0.671875 -1.0625 -0.671875 -2.375q0 -1.453125 0.8125 -2.703125q0.828125 -1.265625 2.40625 -1.90625q1.578125 -0.65625 3.5 -0.65625q2.125 0 3.734375 0.6875q1.625 0.671875 2.5 2.0q0.875 1.328125 0.9375 3.015625l-2.421875 0.1875q-0.1875 -1.8125 -1.3125 -2.734375q-1.125 -0.9375 -3.328125 -0.9375q-2.296875 0 -3.34375 0.84375q-1.046875 0.84375 -1.046875 2.03125q0 1.015625 0.75 1.6875q0.71875 0.65625 3.796875 1.359375q3.078125 0.703125 4.234375 1.21875q1.65625 0.765625 2.453125 1.953125q0.796875 1.171875 0.796875 2.703125q0 1.53125 -0.875 2.875q-0.875 1.34375 -2.515625 2.09375q-1.625 0.75 -3.671875 0.75q-2.59375 0 -4.34375 -0.75q-1.75 -0.765625 -2.75 -2.28125q-0.984375 -1.515625 -1.03125 -3.421875zm26.466675 6.125l0 -19.078125l2.53125 0l0 19.078125l-2.53125 0zm23.31189 -7.484375l0 -2.234375l8.078125 -0.015625l0 7.078125q-1.859375 1.484375 -3.84375 2.234375q-1.96875 0.75 -4.046875 0.75q-2.8125 0 -5.109375 -1.203125q-2.296875 -1.203125 -3.46875 -3.484375q-1.171875 -2.28125 -1.171875 -5.09375q0 -2.78125 1.15625 -5.1875q1.171875 -2.421875 3.359375 -3.59375q2.1875 -1.171875 5.03125 -1.171875q2.078125 0 3.75 0.671875q1.671875 0.671875 2.609375 1.875q0.953125 1.1875 1.453125 3.109375l-2.28125 0.625q-0.421875 -1.453125 -1.0625 -2.28125q-0.640625 -0.84375 -1.828125 -1.34375q-1.171875 -0.5 -2.625 -0.5q-1.734375 0 -3.0 0.53125q-1.25 0.53125 -2.03125 1.390625q-0.765625 0.859375 -1.203125 1.890625q-0.734375 1.765625 -0.734375 3.828125q0 2.5625 0.875 4.28125q0.890625 1.703125 2.5625 2.546875q1.6875 0.828125 3.578125 0.828125q1.640625 0 3.1875 -0.625q1.5625 -0.640625 2.375 -1.359375l0 -3.546875l-5.609375 0zm19.18689 7.484375l0 -19.078125l2.59375 0l10.015625 14.984375l0 -14.984375l2.421875 0l0 19.078125l-2.59375 0l-10.015625 -15.0l0 15.0l-2.421875 0zm26.046875 -9.34375q0 -1.375 0.96875 -2.328125q0.96875 -0.96875 2.328125 -0.96875q1.359375 0 2.328125 0.96875q0.96875 0.953125 0.96875 2.328125q0 1.359375 -0.96875 2.328125q-0.96875 0.96875 -2.328125 0.96875q-1.359375 0 -2.328125 -0.96875q-0.96875 -0.96875 -0.96875 -2.328125zm13.813751 9.34375l7.3125 -19.078125l2.734375 0l7.796875 19.078125l-2.875 0l-2.21875 -5.78125l-7.984375 0l-2.09375 5.78125l-2.671875 0zm5.5 -7.828125l6.46875 0l-2.0 -5.296875q-0.90625 -2.40625 -1.34375 -3.953125q-0.375 1.84375 -1.03125 3.640625l-2.09375 5.609375zm20.33908 7.828125l0 -19.078125l8.46875 0q2.546875 0 3.875 0.515625q1.328125 0.515625 2.109375 1.8125q0.796875 1.296875 0.796875 2.875q0 2.03125 -1.3125 3.421875q-1.3125 1.390625 -4.0625 1.765625q1.015625 0.484375 1.53125 0.953125q1.109375 1.015625 2.09375 2.546875l3.3125 5.1875l-3.171875 0l-2.515625 -3.96875q-1.109375 -1.71875 -1.828125 -2.625q-0.71875 -0.921875 -1.28125 -1.28125q-0.5625 -0.359375 -1.15625 -0.5q-0.421875 -0.09375 -1.40625 -0.09375l-2.921875 0l0 8.46875l-2.53125 0zm2.53125 -10.65625l5.421875 0q1.734375 0 2.703125 -0.359375q0.984375 -0.359375 1.484375 -1.140625q0.515625 -0.796875 0.515625 -1.71875q0 -1.359375 -0.984375 -2.21875q-0.984375 -0.875 -3.109375 -0.875l-6.03125 0l0 6.3125zm37.703125 3.96875l2.53125 0.640625q-0.796875 3.109375 -2.859375 4.75q-2.0625 1.625 -5.046875 1.625q-3.09375 0 -5.03125 -1.25q-1.921875 -1.265625 -2.9375 -3.640625q-1.0 -2.390625 -1.0 -5.125q0 -2.984375 1.140625 -5.203125q1.140625 -2.21875 3.234375 -3.359375q2.109375 -1.15625 4.625 -1.15625q2.875 0 4.828125 1.46875q1.953125 1.453125 2.71875 4.09375l-2.484375 0.578125q-0.671875 -2.078125 -1.9375 -3.03125q-1.25 -0.953125 -3.171875 -0.953125q-2.203125 0 -3.6875 1.0625q-1.46875 1.046875 -2.0625 2.828125q-0.59375 1.78125 -0.59375 3.65625q0 2.4375 0.703125 4.265625q0.703125 1.8125 2.203125 2.71875q1.5 0.890625 3.25 0.890625q2.109375 0 3.578125 -1.21875q1.484375 -1.234375 2.0 -3.640625zm13.125 6.6875l0 -19.078125l2.515625 0l0 7.828125l9.9219055 0l0 -7.828125l2.53125 0l0 19.078125l-2.53125 0l0 -9.0l-9.9219055 0l0 9.0l-2.515625 0zm27.00003 0l0 -19.078125l2.53125 0l0 19.078125l-2.53125 0zm18.752014 0l0 -16.828125l-6.28125 0l0 -2.25l15.125 0l0 2.25l-6.3125 0l0 16.828125l-2.53125 0zm18.410034 0l0 -19.078125l13.796875 0l0 2.25l-11.265625 0l0 5.84375l10.546875 0l0 2.234375l-10.546875 0l0 6.5l11.703125 0l0 2.25l-14.234375 0zm38.747986 -6.6875l2.53125 0.640625q-0.796875 3.109375 -2.859375 4.75q-2.0625 1.625 -5.046875 1.625q-3.09375 0 -5.03125 -1.25q-1.921875 -1.265625 -2.9375 -3.640625q-1.0 -2.390625 -1.0 -5.125q0 -2.984375 1.140625 -5.203125q1.140625 -2.21875 3.234375 -3.359375q2.109375 -1.15625 4.625 -1.15625q2.875 0 4.828125 1.46875q1.953125 1.453125 2.71875 4.09375l-2.484375 0.578125q-0.671875 -2.078125 -1.9375 -3.03125q-1.25 -0.953125 -3.171875 -0.953125q-2.203125 0 -3.6875 1.0625q-1.46875 1.046875 -2.0625 2.828125q-0.59375 1.78125 -0.59375 3.65625q0 2.4375 0.703125 4.265625q0.703125 1.8125 2.203125 2.71875q1.5 0.890625 3.25 0.890625q2.109375 0 3.578125 -1.21875q1.484375 -1.234375 2.0 -3.640625zm17.408875 6.6875l0 -16.828125l-6.28125 0l0 -2.25l15.125 0l0 2.25l-6.3125 0l0 16.828125l-2.53125 0zm30.878723 -19.078125l2.53125 0l0 11.015625q0 2.875 -0.65625 4.578125q-0.65625 1.6875 -2.359375 2.75q-1.6875 1.0625 -4.453125 1.0625q-2.671875 0 -4.390625 -0.921875q-1.703125 -0.921875 -2.4375 -2.671875q-0.71875 -1.765625 -0.71875 -4.796875l0 -11.015625l2.53125 0l0 11.015625q0 2.484375 0.453125 3.65625q0.46875 1.171875 1.59375 1.8125q1.125 0.640625 2.75 0.640625q2.78125 0 3.96875 -1.265625q1.1875 -1.265625 1.1875 -4.84375l0 -11.015625zm14.171875 19.078125l0 -19.078125l8.46875 0q2.546875 0 3.875 0.515625q1.328125 0.515625 2.109375 1.8125q0.796875 1.296875 0.796875 2.875q0 2.03125 -1.3125 3.421875q-1.3125 1.390625 -4.0625 1.765625q1.015625 0.484375 1.53125 0.953125q1.109375 1.015625 2.09375 2.546875l3.3125 5.1875l-3.171875 0l-2.515625 -3.96875q-1.109375 -1.71875 -1.828125 -2.625q-0.71875 -0.921875 -1.28125 -1.28125q-0.5625 -0.359375 -1.15625 -0.5q-0.421875 -0.09375 -1.40625 -0.09375l-2.921875 0l0 8.46875l-2.53125 0zm2.53125 -10.65625l5.421875 0q1.734375 0 2.703125 -0.359375q0.984375 -0.359375 1.484375 -1.140625q0.515625 -0.796875 0.515625 -1.71875q0 -1.359375 -0.984375 -2.21875q-0.984375 -0.875 -3.109375 -0.875l-6.03125 0l0 6.3125zm24.140625 10.65625l0 -19.078125l13.796875 0l0 2.25l-11.265625 0l0 5.84375l10.546875 0l0 2.234375l-10.546875 0l0 6.5l11.703125 0l0 2.25l-14.234375 0z" fill-rule="nonzero"/><path fill="#000000" fill-opacity="0.0" d="m16.419947 118.22572l719.71655 0.9763794" fill-rule="evenodd"/><path stroke="#c9bebe" stroke-width="1.0" stroke-linejoin="round" stroke-linecap="butt" d="m16.419947 118.22572l719.71655 0.9763794" fill-rule="evenodd"/></g></svg>